<?xml version="1.0" encoding="utf-8"?>
<!-- Generator: Adobe Illustrator 26.0.0, SVG Export Plug-In . SVG Version: 6.00 Build 0)  -->
<svg version="1.1" id="Layer_1" xmlns="http://www.w3.org/2000/svg" xmlns:xlink="http://www.w3.org/1999/xlink" x="0px" y="0px"
	 viewBox="0 0 1920 1080" style="enable-background:new 0 0 1920 1080;" xml:space="preserve">
<style type="text/css">
	.st0{fill:#020000;}
</style>
<g>
	<path class="st0" d="M168.96,489.01H105v44.11h61.7v26.04H105v87.38H77.3V462.97h91.66V489.01z"/>
	<path class="st0" d="M279.65,530.74h26.87v115.8h-26.87v-12.13c-11.02,10.3-22.87,15.46-35.55,15.46
		c-16.01,0-29.25-5.78-39.71-17.36c-10.38-11.81-15.57-26.55-15.57-44.23c0-17.36,5.19-31.82,15.57-43.39
		c10.38-11.57,23.38-17.36,38.99-17.36c13.47,0,25.56,5.55,36.26,16.64V530.74z M216.16,588.28c0,11.1,2.97,20.13,8.92,27.11
		c6.1,7.06,13.79,10.58,23.06,10.58c9.91,0,17.91-3.41,24.02-10.22c6.1-7.05,9.15-16.01,9.15-26.87c0-10.86-3.05-19.81-9.15-26.87
		c-6.1-6.9-14.03-10.34-23.78-10.34c-9.2,0-16.88,3.49-23.06,10.46C219.21,569.18,216.16,577.9,216.16,588.28z"/>
	<path class="st0" d="M367.03,445.73v200.8h-26.75v-200.8H367.03z"/>
	<path class="st0" d="M491.03,535.73v35.55c-6.1-7.45-11.57-12.56-16.41-15.34c-4.76-2.85-10.34-4.28-16.76-4.28
		c-10.07,0-18.43,3.53-25.09,10.58c-6.66,7.06-9.99,15.89-9.99,26.51c0,10.86,3.21,19.78,9.63,26.75
		c6.5,6.98,14.78,10.46,24.85,10.46c6.42,0,12.09-1.39,17-4.16c4.76-2.69,10.34-7.92,16.76-15.69v35.31
		c-10.86,5.63-21.72,8.44-32.58,8.44c-17.91,0-32.89-5.78-44.94-17.36c-12.05-11.65-18.07-26.11-18.07-43.39
		c0-17.28,6.1-31.86,18.31-43.75c12.2-11.89,27.18-17.83,44.94-17.83C470.1,527.53,480.88,530.26,491.03,535.73z"/>
	<path class="st0" d="M511.48,587.8c0-16.72,5.98-30.95,17.95-42.68c11.97-11.73,26.55-17.6,43.75-17.6
		c17.28,0,31.94,5.91,43.99,17.71c11.89,11.81,17.83,26.32,17.83,43.51c0,17.36-5.99,31.9-17.95,43.63
		c-12.05,11.65-26.83,17.48-44.35,17.48c-17.36,0-31.9-5.94-43.63-17.83C517.34,620.3,511.48,605.56,511.48,587.8z M538.82,588.28
		c0,11.57,3.09,20.73,9.27,27.46c6.34,6.82,14.7,10.22,25.09,10.22c10.46,0,18.82-3.37,25.09-10.11c6.26-6.74,9.39-15.73,9.39-26.99
		c0-11.25-3.13-20.25-9.39-26.99c-6.34-6.82-14.7-10.22-25.09-10.22c-10.22,0-18.51,3.41-24.85,10.22
		C541.99,568.7,538.82,577.5,538.82,588.28z"/>
	<path class="st0" d="M663.3,530.74h26.87v10.7c9.35-9.27,19.89-13.91,31.62-13.91c13.47,0,23.97,4.24,31.51,12.72
		c6.5,7.21,9.75,18.98,9.75,35.31v70.98h-26.87v-64.67c0-11.41-1.59-19.3-4.76-23.66c-3.09-4.44-8.72-6.66-16.88-6.66
		c-8.88,0-15.18,2.93-18.9,8.8c-3.65,5.79-5.47,15.89-5.47,30.32v55.88H663.3V530.74z"/>
	<path class="st0" d="M902.26,594.94h-82.98c0.71,9.51,3.8,17.08,9.27,22.71c5.47,5.55,12.48,8.32,21.04,8.32
		c6.66,0,12.17-1.58,16.53-4.76c4.28-3.17,9.15-9.04,14.62-17.6l22.59,12.6c-3.49,5.94-7.17,11.04-11.06,15.28
		c-3.88,4.24-8.05,7.73-12.48,10.46c-4.44,2.73-9.23,4.74-14.39,6c-5.15,1.27-10.74,1.9-16.76,1.9c-17.28,0-31.15-5.55-41.61-16.64
		c-10.46-11.18-15.69-26-15.69-44.46c0-18.31,5.07-33.13,15.22-44.46c10.22-11.18,23.78-16.76,40.66-16.76
		c17.04,0,30.51,5.43,40.42,16.29c9.83,10.78,14.74,25.72,14.74,44.82L902.26,594.94z M874.8,573.06
		c-3.73-14.27-12.72-21.4-26.99-21.4c-3.25,0-6.3,0.5-9.15,1.49c-2.85,0.99-5.45,2.42-7.79,4.28c-2.34,1.86-4.34,4.1-6,6.72
		c-1.66,2.62-2.93,5.59-3.8,8.92H874.8z"/>
	<path class="st0" d="M931.51,530.74h26.75v10.34c4.91-5.15,9.27-8.68,13.08-10.58c3.88-1.98,8.48-2.97,13.79-2.97
		c7.05,0,14.42,2.3,22.11,6.9l-12.25,24.49c-5.07-3.64-10.03-5.47-14.86-5.47c-14.58,0-21.88,11.02-21.88,33.05v60.04h-26.75V530.74
		z"/>
	<path class="st0" d="M1174.87,535.73v35.55c-6.1-7.45-11.57-12.56-16.41-15.34c-4.76-2.85-10.34-4.28-16.76-4.28
		c-10.07,0-18.43,3.53-25.09,10.58c-6.66,7.06-9.99,15.89-9.99,26.51c0,10.86,3.21,19.78,9.63,26.75
		c6.5,6.98,14.78,10.46,24.85,10.46c6.42,0,12.09-1.39,17-4.16c4.76-2.69,10.34-7.92,16.76-15.69v35.31
		c-10.86,5.63-21.72,8.44-32.58,8.44c-17.91,0-32.89-5.78-44.94-17.36c-12.05-11.65-18.07-26.11-18.07-43.39
		c0-17.28,6.1-31.86,18.31-43.75c12.2-11.89,27.18-17.83,44.94-17.83C1153.94,527.53,1164.72,530.26,1174.87,535.73z"/>
	<path class="st0" d="M1195.32,587.8c0-16.72,5.98-30.95,17.95-42.68c11.97-11.73,26.55-17.6,43.75-17.6
		c17.28,0,31.94,5.91,43.99,17.71c11.89,11.81,17.83,26.32,17.83,43.51c0,17.36-5.99,31.9-17.95,43.63
		c-12.05,11.65-26.83,17.48-44.34,17.48c-17.36,0-31.9-5.94-43.63-17.83C1201.18,620.3,1195.32,605.56,1195.32,587.8z
		 M1222.66,588.28c0,11.57,3.09,20.73,9.27,27.46c6.34,6.82,14.7,10.22,25.09,10.22c10.46,0,18.82-3.37,25.09-10.11
		c6.26-6.74,9.39-15.73,9.39-26.99c0-11.25-3.13-20.25-9.39-26.99c-6.34-6.82-14.7-10.22-25.09-10.22
		c-10.22,0-18.51,3.41-24.85,10.22C1225.83,568.7,1222.66,577.5,1222.66,588.28z"/>
	<path class="st0" d="M1530.22,462.97V620.5h53.97v26.04h-81.68V462.97H1530.22z"/>
	<path class="st0" d="M1632.94,555.7v90.83h-26.75V555.7h-11.41v-24.97h11.41V488.3h26.75v42.44h20.81v24.97H1632.94z"/>
	<path class="st0" d="M1757.3,445.73h26.87v200.8h-26.87v-12.13c-10.54,10.3-22.47,15.46-35.79,15.46
		c-15.85,0-29.01-5.78-39.47-17.36c-10.38-11.81-15.57-26.55-15.57-44.23c0-17.28,5.19-31.7,15.57-43.27
		c10.3-11.65,23.26-17.48,38.88-17.48c13.55,0,25.68,5.55,36.38,16.64V445.73z M1693.81,588.28c0,11.1,2.97,20.13,8.92,27.11
		c6.1,7.06,13.79,10.58,23.06,10.58c9.91,0,17.91-3.41,24.02-10.22c6.1-7.05,9.15-16.01,9.15-26.87c0-10.86-3.05-19.81-9.15-26.87
		c-6.1-6.9-14.03-10.34-23.78-10.34c-9.2,0-16.88,3.49-23.06,10.46C1696.86,569.18,1693.81,577.9,1693.81,588.28z"/>
	<g>
		<path class="st0" d="M1454.3,621.19v25.36c0,9.54-2.18,17.75-6.53,24.61c-4.36,6.86-11.39,11.71-21.1,14.56v-12.56
			c2.84-1.01,5.23-2.47,7.16-4.39c1.92-1.93,3.47-4.02,4.64-6.28c1.17-2.26,1.97-4.56,2.39-6.9c0.41-2.35,0.54-4.52,0.38-6.53
			h-14.81v-27.88H1454.3z"/>
	</g>
	<g>
		<path class="st0" d="M1842.7,622.34v24.91h-24.91v-24.91H1842.7z"/>
	</g>
	<g>
		<path class="st0" d="M1393.33,621.34v24.91h-24.91v-24.91H1393.33z"/>
	</g>
</g>
</svg>
