<?xml version="1.0" encoding="utf-8"?>
<!-- Generator: Adobe Illustrator 26.0.1, SVG Export Plug-In . SVG Version: 6.00 Build 0)  -->
<svg version="1.1" id="レイヤー_1" xmlns="http://www.w3.org/2000/svg" xmlns:xlink="http://www.w3.org/1999/xlink" x="0px"
	 y="0px" viewBox="0 0 228 32" style="enable-background:new 0 0 228 32;" xml:space="preserve">
<style type="text/css">
	.st0{fill:#231815;}
</style>
<g>
	<path class="st0" d="M11.84,6.09H3.58v5.7h7.97v3.36H3.58v11.29H0V2.73h11.84V6.09z"/>
	<path class="st0" d="M26.13,11.48h3.47v14.95h-3.47v-1.57c-1.42,1.33-2.95,2-4.59,2c-2.07,0-3.78-0.75-5.13-2.24
		c-1.34-1.53-2.01-3.43-2.01-5.71c0-2.24,0.67-4.11,2.01-5.6c1.34-1.49,3.02-2.24,5.04-2.24c1.74,0,3.3,0.72,4.68,2.15V11.48z
		 M17.93,18.91c0,1.43,0.38,2.6,1.15,3.5c0.79,0.91,1.78,1.37,2.98,1.37c1.28,0,2.31-0.44,3.1-1.32c0.79-0.91,1.18-2.07,1.18-3.47
		c0-1.4-0.39-2.56-1.18-3.47c-0.79-0.89-1.81-1.34-3.07-1.34c-1.19,0-2.18,0.45-2.98,1.35C18.33,16.45,17.93,17.57,17.93,18.91z"/>
	<path class="st0" d="M37.42,0.5v25.93h-3.45V0.5H37.42z"/>
	<path class="st0" d="M53.43,12.13v4.59c-0.79-0.96-1.49-1.62-2.12-1.98c-0.61-0.37-1.34-0.55-2.16-0.55c-1.3,0-2.38,0.46-3.24,1.37
		c-0.86,0.91-1.29,2.05-1.29,3.42c0,1.4,0.41,2.55,1.24,3.45c0.84,0.9,1.91,1.35,3.21,1.35c0.83,0,1.56-0.18,2.2-0.54
		c0.61-0.35,1.34-1.02,2.16-2.03v4.56c-1.4,0.73-2.8,1.09-4.21,1.09c-2.31,0-4.25-0.75-5.8-2.24c-1.56-1.5-2.33-3.37-2.33-5.6
		c0-2.23,0.79-4.11,2.36-5.65c1.58-1.54,3.51-2.3,5.8-2.3C50.73,11.07,52.12,11.42,53.43,12.13z"/>
	<path class="st0" d="M56.07,18.85c0-2.16,0.77-4,2.32-5.51c1.55-1.51,3.43-2.27,5.65-2.27c2.23,0,4.13,0.76,5.68,2.29
		c1.54,1.53,2.3,3.4,2.3,5.62c0,2.24-0.77,4.12-2.32,5.63c-1.56,1.5-3.47,2.26-5.73,2.26c-2.24,0-4.12-0.77-5.63-2.3
		C56.83,23.05,56.07,21.14,56.07,18.85z M59.61,18.91c0,1.49,0.4,2.68,1.2,3.55c0.82,0.88,1.9,1.32,3.24,1.32
		c1.35,0,2.43-0.43,3.24-1.31c0.81-0.87,1.21-2.03,1.21-3.49c0-1.45-0.4-2.62-1.21-3.49c-0.82-0.88-1.9-1.32-3.24-1.32
		c-1.32,0-2.39,0.44-3.21,1.32C60.01,16.38,59.61,17.52,59.61,18.91z"/>
	<path class="st0" d="M75.68,11.48h3.47v1.38c1.21-1.2,2.57-1.8,4.08-1.8c1.74,0,3.1,0.55,4.07,1.64c0.84,0.93,1.26,2.45,1.26,4.56
		v9.17h-3.47v-8.35c0-1.47-0.2-2.49-0.61-3.06c-0.4-0.57-1.13-0.86-2.18-0.86c-1.15,0-1.96,0.38-2.44,1.14
		c-0.47,0.75-0.71,2.05-0.71,3.92v7.22h-3.47V11.48z"/>
	<path class="st0" d="M106.54,19.77H95.83c0.09,1.23,0.49,2.21,1.2,2.93c0.71,0.72,1.61,1.07,2.72,1.07c0.86,0,1.57-0.2,2.13-0.61
		c0.55-0.41,1.18-1.17,1.89-2.27l2.92,1.63c-0.45,0.77-0.93,1.43-1.43,1.97c-0.5,0.55-1.04,1-1.61,1.35
		c-0.57,0.35-1.19,0.61-1.86,0.78c-0.67,0.16-1.39,0.25-2.16,0.25c-2.23,0-4.02-0.72-5.37-2.15c-1.35-1.44-2.03-3.36-2.03-5.74
		c0-2.36,0.65-4.28,1.97-5.74c1.32-1.44,3.07-2.16,5.25-2.16c2.2,0,3.94,0.7,5.22,2.1c1.27,1.39,1.9,3.32,1.9,5.79L106.54,19.77z
		 M103,16.95c-0.48-1.84-1.64-2.76-3.49-2.76c-0.42,0-0.81,0.06-1.18,0.19c-0.37,0.13-0.7,0.31-1.01,0.55
		c-0.3,0.24-0.56,0.53-0.78,0.87c-0.21,0.34-0.38,0.72-0.49,1.15H103z"/>
	<path class="st0" d="M110.32,11.48h3.45v1.34c0.63-0.67,1.2-1.12,1.69-1.37c0.5-0.26,1.1-0.38,1.78-0.38c0.91,0,1.86,0.3,2.86,0.89
		l-1.58,3.16c-0.66-0.47-1.3-0.71-1.92-0.71c-1.88,0-2.83,1.42-2.83,4.27v7.75h-3.45V11.48z"/>
	<path class="st0" d="M141.75,12.13v4.59c-0.79-0.96-1.49-1.62-2.12-1.98c-0.61-0.37-1.34-0.55-2.16-0.55
		c-1.3,0-2.38,0.46-3.24,1.37c-0.86,0.91-1.29,2.05-1.29,3.42c0,1.4,0.41,2.55,1.24,3.45c0.84,0.9,1.91,1.35,3.21,1.35
		c0.83,0,1.56-0.18,2.2-0.54c0.61-0.35,1.34-1.02,2.16-2.03v4.56c-1.4,0.73-2.8,1.09-4.21,1.09c-2.31,0-4.25-0.75-5.8-2.24
		c-1.56-1.5-2.33-3.37-2.33-5.6c0-2.23,0.79-4.11,2.36-5.65c1.58-1.54,3.51-2.3,5.8-2.3C139.05,11.07,140.44,11.42,141.75,12.13z"/>
	<path class="st0" d="M144.39,18.85c0-2.16,0.77-4,2.32-5.51c1.55-1.51,3.43-2.27,5.65-2.27c2.23,0,4.12,0.76,5.68,2.29
		c1.54,1.53,2.3,3.4,2.3,5.62c0,2.24-0.77,4.12-2.32,5.63c-1.56,1.5-3.46,2.26-5.73,2.26c-2.24,0-4.12-0.77-5.64-2.3
		C145.15,23.05,144.39,21.14,144.39,18.85z M147.92,18.91c0,1.49,0.4,2.68,1.2,3.55c0.82,0.88,1.9,1.32,3.24,1.32
		c1.35,0,2.43-0.43,3.24-1.31c0.81-0.87,1.21-2.03,1.21-3.49c0-1.45-0.4-2.62-1.21-3.49c-0.82-0.88-1.9-1.32-3.24-1.32
		c-1.32,0-2.39,0.44-3.21,1.32C148.33,16.38,147.92,17.52,147.92,18.91z"/>
	<path class="st0" d="M187.64,2.73v20.34h6.97v3.36h-10.55V2.73H187.64z"/>
	<path class="st0" d="M200.91,14.71v11.73h-3.45V14.71h-1.47v-3.22h1.47V6h3.45v5.48h2.69v3.22H200.91z"/>
	<path class="st0" d="M216.97,0.5h3.47v25.93h-3.47v-1.57c-1.36,1.33-2.9,2-4.62,2c-2.05,0-3.75-0.75-5.1-2.24
		c-1.34-1.53-2.01-3.43-2.01-5.71c0-2.23,0.67-4.09,2.01-5.59c1.33-1.5,3-2.26,5.02-2.26c1.75,0,3.32,0.72,4.7,2.15V0.5z
		 M208.77,18.91c0,1.43,0.38,2.6,1.15,3.5c0.79,0.91,1.78,1.37,2.98,1.37c1.28,0,2.31-0.44,3.1-1.32c0.79-0.91,1.18-2.07,1.18-3.47
		c0-1.4-0.39-2.56-1.18-3.47c-0.79-0.89-1.81-1.34-3.07-1.34c-1.19,0-2.18,0.45-2.98,1.35C209.17,16.45,208.77,17.57,208.77,18.91z"
		/>
	<g>
		<path class="st0" d="M177.84,23.16v3.28c0,1.23-0.28,2.29-0.84,3.18c-0.56,0.89-1.47,1.51-2.72,1.88v-1.62
			c0.37-0.13,0.68-0.32,0.92-0.57c0.25-0.25,0.45-0.52,0.6-0.81c0.15-0.29,0.25-0.59,0.31-0.89c0.05-0.3,0.07-0.58,0.05-0.84h-1.91
			v-3.6H177.84z"/>
	</g>
	<g>
		<path class="st0" d="M228,23.31v3.22h-3.22v-3.22H228z"/>
	</g>
	<g>
		<path class="st0" d="M169.96,23.18v3.22h-3.22v-3.22H169.96z"/>
	</g>
</g>
</svg>
