<svg xmlns="http://www.w3.org/2000/svg" width="66.826" height="54.309" viewBox="0 0 66.826 54.309"><defs><style>.a{fill:#1da1f2;}</style></defs><path class="a" d="M96.016,152.72c25.218,0,39.009-20.892,39.009-39.008,0-.594-.012-1.185-.039-1.772a27.9,27.9,0,0,0,6.84-7.1A27.368,27.368,0,0,1,133.952,107a13.756,13.756,0,0,0,6.029-7.584,27.476,27.476,0,0,1-8.706,3.328,13.723,13.723,0,0,0-23.364,12.5,38.925,38.925,0,0,1-28.26-14.324,13.721,13.721,0,0,0,4.244,18.3,13.609,13.609,0,0,1-6.209-1.715c0,.057,0,.115,0,.175a13.716,13.716,0,0,0,11,13.441,13.69,13.69,0,0,1-6.192.235A13.726,13.726,0,0,0,95.3,140.883a27.512,27.512,0,0,1-17.028,5.869,27.886,27.886,0,0,1-3.27-.19,38.815,38.815,0,0,0,21.016,6.158" transform="translate(-75 -98.411)"/></svg>