<svg xmlns="http://www.w3.org/2000/svg" width="60.137" height="42.095" viewBox="0 0 60.137 42.095"><defs><style>.a{fill:red;}.b{fill:#fff;}</style></defs><path class="a" d="M143.43,91.612a7.532,7.532,0,0,0-5.317-5.316c-4.69-1.257-23.5-1.257-23.5-1.257s-18.805,0-23.5,1.257a7.532,7.532,0,0,0-5.317,5.316c-1.256,4.69-1.256,14.475-1.256,14.475s0,9.785,1.256,14.475a7.531,7.531,0,0,0,5.317,5.316c4.69,1.257,23.5,1.257,23.5,1.257s18.805,0,23.5-1.257a7.531,7.531,0,0,0,5.317-5.316c1.256-4.69,1.256-14.475,1.256-14.475S144.687,96.3,143.43,91.612Z" transform="translate(-84.55 -85.039)"/><path class="b" d="M133.144,127.377l15.623-9.02-15.623-9.021Z" transform="translate(-109.089 -97.309)"/></svg>