<svg id="グループ_10" data-name="グループ 10" xmlns="http://www.w3.org/2000/svg" width="95.783" height="67.049" viewBox="0 0 95.783 67.049">
  <path id="パス_3" data-name="パス 3" d="M178.332,95.509a12,12,0,0,0-8.469-8.468c-7.47-2-37.422-2-37.422-2s-29.952,0-37.422,2a12,12,0,0,0-8.469,8.468c-2,7.47-2,23.055-2,23.055s0,15.585,2,23.055a12,12,0,0,0,8.469,8.468c7.47,2,37.422,2,37.422,2s29.952,0,37.422-2a12,12,0,0,0,8.469-8.468c2-7.47,2-23.055,2-23.055S180.333,102.978,178.332,95.509Z" transform="translate(-84.55 -85.039)" fill="red"/>
  <path id="パス_4" data-name="パス 4" d="M133.144,138.071,158.028,123.7l-24.884-14.368Z" transform="translate(-94.83 -90.179)" fill="#fff"/>
</svg>
